<svg xmlns="http://www.w3.org/2000/svg" width="24.212" height="19.549" viewBox="0 0 24.212 19.549">
  <path id="Union_5" data-name="Union 5" d="M4409.209-22867.453a6.059,6.059,0,0,1,.542-4.68,6.125,6.125,0,0,1,3.721-2.926,5.184,5.184,0,0,1,3.932.441,5.1,5.1,0,0,1,2.465,3.063,4.286,4.286,0,0,1-2.973,5.3,3.667,3.667,0,0,1-4.523-2.488.952.952,0,0,1,.668-1.184.974.974,0,0,1,1.206.656,1.705,1.705,0,0,0,2.112,1.16,2.353,2.353,0,0,0,1.635-2.91,3.165,3.165,0,0,0-1.536-1.91,3.225,3.225,0,0,0-2.45-.277,4.238,4.238,0,0,0-2.558,2.012,4.161,4.161,0,0,0-.368,3.215,5.593,5.593,0,0,0,6.9,3.781,7.137,7.137,0,0,0,4.945-8.836,9.3,9.3,0,0,0-11.462-6.285,11.749,11.749,0,0,0-7.085,5.578,11.519,11.519,0,0,0-1.021,8.895.975.975,0,0,1-.668,1.2.986.986,0,0,1-1.206-.66,13.433,13.433,0,0,1,1.194-10.375l.181-.32h0a13.672,13.672,0,0,1,8.067-6.168,11.242,11.242,0,0,1,13.87,7.609,9.067,9.067,0,0,1-6.286,11.219,7.6,7.6,0,0,1-2.072.289A7.538,7.538,0,0,1,4409.209-22867.453Z" transform="translate(-4400.951 22881.604)" fill="#fff"/>
</svg>
